<?xml version="1.0" encoding="UTF-8" standalone="no"?>
<!DOCTYPE svg PUBLIC "-//W3C//DTD SVG 1.1//EN" "http://www.w3.org/Graphics/SVG/1.1/DTD/svg11.dtd">
<svg version="1.1" xmlns="http://www.w3.org/2000/svg" xmlns:xlink="http://www.w3.org/1999/xlink" preserveAspectRatio="xMidYMid meet" viewBox="164.9147286821705 237.3722627737226 289.24031007751944 186.20582809936062" width="261.24" height="154.21"><defs><path d="" id="c1tT0AweOD"></path><path d="" id="h2IEEYmmp6"></path><path d="M308.44 258.91L374.7 265.62L378.35 292.63L215.58 314.53L194.41 247.37L308.44 258.91Z" id="dHVLAR5vM"></path><path d="M225.64 401.58L412.05 390.03L425.88 253.33L182.82 277.62L225.64 401.58Z" id="b1cXLn3SZ3"></path><path d="M440.16 334.05C440.16 363.36 381.63 387.15 309.53 387.15C237.44 387.15 178.91 363.36 178.91 334.05C178.91 304.74 237.44 280.95 309.53 280.95C381.63 280.95 440.16 304.74 440.16 334.05Z" id="b8nubiGqi"></path><path d="M425.88 253.33L420.55 306.07L420.57 306.09L423.15 307.85L425.57 309.66L427.81 311.5L429.88 313.39L431.78 315.31L433.49 317.27L435.02 319.27L436.36 321.3L437.5 323.35L438.44 325.44L439.19 327.56L439.72 329.7L440.05 331.86L440.16 334.05L440.05 336.24L439.72 338.4L439.19 340.54L438.44 342.66L437.5 344.75L436.36 346.8L435.02 348.83L433.49 350.83L431.78 352.79L429.88 354.71L427.81 356.6L425.57 358.44L423.15 360.25L420.57 362.01L417.83 363.73L414.94 365.4L414.52 365.63L412.05 390.03L225.64 401.58L214.96 370.65L213.71 370.12L210.37 368.6L207.18 367.03L204.13 365.4L201.24 363.73L198.5 362.01L195.92 360.25L193.5 358.44L191.26 356.6L189.19 354.71L187.29 352.79L185.58 350.83L184.05 348.83L182.71 346.8L181.57 344.75L180.63 342.66L179.88 340.54L179.35 338.4L179.02 336.24L178.91 334.05L179.02 331.86L179.35 329.7L179.88 327.56L180.63 325.44L181.57 323.35L182.71 321.3L184.05 319.27L185.58 317.27L187.29 315.31L189.19 313.39L191.26 311.5L193.5 309.66L193.81 309.43L182.82 277.62L203.3 275.57L194.41 247.37L339.03 262.01L425.88 253.33Z" id="a8ZBs8vRs"></path></defs><g><g><g><filter id="shadow445884" x="379.35" y="308.18" width="74" height="83" filterUnits="userSpaceOnUse" primitiveUnits="userSpaceOnUse"><feFlood></feFlood><feComposite in2="SourceAlpha" operator="in"></feComposite><feGaussianBlur stdDeviation="3.16"></feGaussianBlur><feOffset dx="0" dy="9" result="afterOffset"></feOffset><feFlood flood-color="#000000" flood-opacity="0.5"></feFlood><feComposite in2="afterOffset" operator="in"></feComposite><feMorphology operator="dilate" radius="3"></feMorphology><feComposite in2="SourceAlpha" operator="out"></feComposite></filter><path d="" id="cv3AdXPu" fill="white" fill-opacity="1" filter="url(#shadow445884)"></path></g><g><use xlink:href="#c1tT0AweOD" opacity="1" fill-opacity="0" stroke="#000000" stroke-width="1" stroke-opacity="1"></use></g></g><g><g><filter id="shadow10384208" x="379.35" y="309.64" width="74" height="83" filterUnits="userSpaceOnUse" primitiveUnits="userSpaceOnUse"><feFlood></feFlood><feComposite in2="SourceAlpha" operator="in"></feComposite><feGaussianBlur stdDeviation="3.16"></feGaussianBlur><feOffset dx="0" dy="9" result="afterOffset"></feOffset><feFlood flood-color="#000000" flood-opacity="0.5"></feFlood><feComposite in2="afterOffset" operator="in"></feComposite><feMorphology operator="dilate" radius="3"></feMorphology><feComposite in2="SourceAlpha" operator="out"></feComposite></filter><path d="" id="e4RJa9S4zZ" fill="white" fill-opacity="1" filter="url(#shadow10384208)"></path></g><g><use xlink:href="#h2IEEYmmp6" opacity="1" fill-opacity="0" stroke="#000000" stroke-width="1" stroke-opacity="1"></use></g></g><g><use xlink:href="#dHVLAR5vM" opacity="1" fill="#e4476d" fill-opacity="1"></use><g><use xlink:href="#dHVLAR5vM" opacity="1" fill-opacity="0" stroke="#000000" stroke-width="1" stroke-opacity="0"></use></g></g><g><use xlink:href="#b1cXLn3SZ3" opacity="1" fill="#f3f3cd" fill-opacity="1"></use><g><use xlink:href="#b1cXLn3SZ3" opacity="1" fill-opacity="0" stroke="#000000" stroke-width="1" stroke-opacity="0"></use></g></g><g><use xlink:href="#b8nubiGqi" opacity="1" fill="#e4476d" fill-opacity="1"></use></g><g><g><use xlink:href="#a8ZBs8vRs" opacity="1" fill-opacity="0" stroke="#000000" stroke-width="1" stroke-opacity="0"></use></g></g></g></svg>