<?xml version="1.0" encoding="UTF-8" standalone="no"?>
<!DOCTYPE svg PUBLIC "-//W3C//DTD SVG 1.1//EN" "http://www.w3.org/Graphics/SVG/1.1/DTD/svg11.dtd">
<svg version="1.1" xmlns="http://www.w3.org/2000/svg" xmlns:xlink="http://www.w3.org/1999/xlink" preserveAspectRatio="xMidYMid meet" viewBox="160.21895624038729 246.99635036496352 321.56208751922543 182.07683009007076" width="291.73" height="152.08"><defs><path d="M436.2 319.66L438.45 321.5L440.52 323.39L442.42 325.31L444.13 327.27L445.66 329.27L446.99 331.3L448.14 333.35L449.08 335.44L449.82 337.56L450.36 339.7L450.68 341.86L450.79 344.05L450.68 346.24L450.36 348.4L449.82 350.54L449.08 352.66L448.14 354.75L446.99 356.8L445.66 358.83L444.13 360.83L442.42 362.79L440.52 364.71L438.45 366.6L436.2 368.44L433.79 370.25L431.21 372.01L428.47 373.73L425.58 375.4L424.57 375.94L418.67 410.07L228.03 397.15L218.66 377.44L217.82 377.03L214.77 375.4L211.87 373.73L209.13 372.01L206.56 370.25L204.14 368.44L201.9 366.6L199.82 364.71L197.93 362.79L196.22 360.83L194.69 358.83L193.35 356.8L192.21 354.75L191.26 352.66L190.52 350.54L189.99 348.4L189.66 346.24L189.55 344.05L189.66 341.86L189.99 339.7L190.52 337.56L191.26 335.44L192.21 333.35L193.35 331.3L194.69 329.27L195.35 328.41L175.22 286.07L234.56 283.66L229.31 272.98L466.78 258L434.62 318.47L436.2 319.66Z" id="c1vlrJZsIs"></path><path d="M466.61 258L426.35 333.69L254.17 323.9L229.13 272.98L466.61 258Z" id="a3ciYgfj3k"></path><path d="M227.86 397.15L418.49 410.07L441.8 275.21L175.05 286.07L227.86 397.15Z" id="f6952S3dL1"></path><path d="M450.62 344.05C450.62 373.36 392.09 397.15 320 397.15C247.91 397.15 189.38 373.36 189.38 344.05C189.38 314.74 247.91 290.95 320 290.95C392.09 290.95 450.62 314.74 450.62 344.05Z" id="gsn7bsNRh"></path></defs><g><g><g><filter id="shadow3047274" x="138.22" y="221" width="365.56" height="230.08" filterUnits="userSpaceOnUse" primitiveUnits="userSpaceOnUse"><feFlood></feFlood><feComposite in2="SourceAlpha" operator="in"></feComposite><feGaussianBlur stdDeviation="3.61"></feGaussianBlur><feOffset dx="0" dy="4" result="afterOffset"></feOffset><feFlood flood-color="#000000" flood-opacity="0.5"></feFlood><feComposite in2="afterOffset" operator="in"></feComposite><feMorphology operator="dilate" radius="2"></feMorphology><feComposite in2="SourceAlpha" operator="out"></feComposite></filter><path d="M436.2 319.66L438.45 321.5L440.52 323.39L442.42 325.31L444.13 327.27L445.66 329.27L446.99 331.3L448.14 333.35L449.08 335.44L449.82 337.56L450.36 339.7L450.68 341.86L450.79 344.05L450.68 346.24L450.36 348.4L449.82 350.54L449.08 352.66L448.14 354.75L446.99 356.8L445.66 358.83L444.13 360.83L442.42 362.79L440.52 364.71L438.45 366.6L436.2 368.44L433.79 370.25L431.21 372.01L428.47 373.73L425.58 375.4L424.57 375.94L418.67 410.07L228.03 397.15L218.66 377.44L217.82 377.03L214.77 375.4L211.87 373.73L209.13 372.01L206.56 370.25L204.14 368.44L201.9 366.6L199.82 364.71L197.93 362.79L196.22 360.83L194.69 358.83L193.35 356.8L192.21 354.75L191.26 352.66L190.52 350.54L189.99 348.4L189.66 346.24L189.55 344.05L189.66 341.86L189.99 339.7L190.52 337.56L191.26 335.44L192.21 333.35L193.35 331.3L194.69 329.27L195.35 328.41L175.22 286.07L234.56 283.66L229.31 272.98L466.78 258L434.62 318.47L436.2 319.66Z" id="aCyq5iLYe" fill="white" fill-opacity="1" filter="url(#shadow3047274)"></path></g><g><use xlink:href="#c1vlrJZsIs" opacity="1" fill-opacity="0" stroke="#000000" stroke-width="1" stroke-opacity="0"></use></g></g><g><use xlink:href="#a3ciYgfj3k" opacity="1" fill="#f3f3cd" fill-opacity="1"></use><g><use xlink:href="#a3ciYgfj3k" opacity="1" fill-opacity="0" stroke="#000000" stroke-width="1" stroke-opacity="0"></use></g></g><g><use xlink:href="#f6952S3dL1" opacity="1" fill="#e4476d" fill-opacity="1"></use><g><use xlink:href="#f6952S3dL1" opacity="1" fill-opacity="0" stroke="#000000" stroke-width="1" stroke-opacity="0"></use></g></g><g><use xlink:href="#gsn7bsNRh" opacity="1" fill="#f3f3cd" fill-opacity="1"></use></g></g></svg>