<?xml version="1.0" encoding="UTF-8" standalone="no"?>
<!DOCTYPE svg PUBLIC "-//W3C//DTD SVG 1.1//EN" "http://www.w3.org/Graphics/SVG/1.1/DTD/svg11.dtd">
<svg version="1.1" xmlns="http://www.w3.org/2000/svg" xmlns:xlink="http://www.w3.org/1999/xlink" preserveAspectRatio="xMidYMid meet" viewBox="259.1607200409713 284.21293984271324 103.6884780725261 73.13956598407515" width="74.23" height="47.81"><defs><path d="M347.85 307.32L347.62 331.79L331.61 331.93L278.22 338.35L274.16 311.66L279.04 310.48L279.12 302.14L305.22 304.11L341.79 295.21L342.4 306.91L347.85 307.32Z" id="bDwvs1pee"></path><path d="M342.87 293.38L345.09 332.97L278.55 341.19L274.16 311.2L342.87 293.38Z" id="a5brAGg4WB"></path><path d="M278.35 334.48L348.39 334.48L348.39 307.02L278.35 300.56L278.35 334.48Z" id="g2pXBpFeKN"></path></defs><g><g><g><filter id="shadow12204548" x="237.16" y="258.21" width="147.69" height="121.14" filterUnits="userSpaceOnUse" primitiveUnits="userSpaceOnUse"><feFlood></feFlood><feComposite in2="SourceAlpha" operator="in"></feComposite><feGaussianBlur stdDeviation="3.61"></feGaussianBlur><feOffset dx="0" dy="4" result="afterOffset"></feOffset><feFlood flood-color="#000000" flood-opacity="0.5"></feFlood><feComposite in2="afterOffset" operator="in"></feComposite><feMorphology operator="dilate" radius="2"></feMorphology><feComposite in2="SourceAlpha" operator="out"></feComposite></filter><path d="M347.85 307.32L347.62 331.79L331.61 331.93L278.22 338.35L274.16 311.66L279.04 310.48L279.12 302.14L305.22 304.11L341.79 295.21L342.4 306.91L347.85 307.32Z" id="c1kUrrpWve" fill="white" fill-opacity="1" filter="url(#shadow12204548)"></path></g></g><g><use xlink:href="#a5brAGg4WB" opacity="1" fill="#e4476d" fill-opacity="1"></use></g><g><use xlink:href="#g2pXBpFeKN" opacity="1" fill="#f3f3cd" fill-opacity="1"></use><g><use xlink:href="#g2pXBpFeKN" opacity="1" fill-opacity="0" stroke="#9ed7bb" stroke-width="3" stroke-opacity="1"></use></g></g></g></svg>