<?xml version="1.0" encoding="UTF-8" standalone="no"?>
<!DOCTYPE svg PUBLIC "-//W3C//DTD SVG 1.1//EN" "http://www.w3.org/Graphics/SVG/1.1/DTD/svg11.dtd">
<svg version="1.1" xmlns="http://www.w3.org/2000/svg" xmlns:xlink="http://www.w3.org/1999/xlink" preserveAspectRatio="xMidYMid meet" viewBox="268.39257014696653 292.3784534859735 124.37984496124028 75.54418356661381" width="94.38" height="45.54"><defs><path d="M355.99 313.9L357.2 341.66L293.97 348.92L288.98 306.21L355.99 313.9Z" id="gGYtwLqFE"></path><path d="M288.35 344.48L377.77 344.48L377.77 303.38L283.39 315.21L288.35 344.48Z" id="b1unmYML9"></path><path d="M332.6 344.48L293.97 348.92L293.45 344.48L288.35 344.48L283.39 315.21L289.94 314.39L288.98 306.21L323.55 310.18L377.77 303.38L377.77 344.48L332.6 344.48Z" id="ag7bvGGqO"></path></defs><g><g><use xlink:href="#gGYtwLqFE" opacity="1" fill="#f3f3cd" fill-opacity="1"></use></g><g><use xlink:href="#b1unmYML9" opacity="1" fill="#e4476d" fill-opacity="1"></use></g><g><g><filter id="shadow10081635" x="246.39" y="266.38" width="168.38" height="123.54" filterUnits="userSpaceOnUse" primitiveUnits="userSpaceOnUse"><feFlood></feFlood><feComposite in2="SourceAlpha" operator="in"></feComposite><feGaussianBlur stdDeviation="3.61"></feGaussianBlur><feOffset dx="0" dy="4" result="afterOffset"></feOffset><feFlood flood-color="#000000" flood-opacity="0.5"></feFlood><feComposite in2="afterOffset" operator="in"></feComposite><feMorphology operator="dilate" radius="2"></feMorphology><feComposite in2="SourceAlpha" operator="out"></feComposite></filter><path d="M332.6 344.48L293.97 348.92L293.45 344.48L288.35 344.48L283.39 315.21L289.94 314.39L288.98 306.21L323.55 310.18L377.77 303.38L377.77 344.48L332.6 344.48Z" id="a34yrPkHgD" fill="white" fill-opacity="1" filter="url(#shadow10081635)"></path></g></g></g></svg>